<?xml version="1.0" encoding="UTF-8" standalone="no"?><!DOCTYPE svg PUBLIC "-//W3C//DTD SVG 1.1//EN" "http://www.w3.org/Graphics/SVG/1.1/DTD/svg11.dtd"><svg width="100%" height="100%" viewBox="0 0 20 21" version="1.1" xmlns="http://www.w3.org/2000/svg" xmlns:xlink="http://www.w3.org/1999/xlink" xml:space="preserve" xmlns:serif="http://www.serif.com/" style="fill-rule:evenodd;clip-rule:evenodd;stroke-linejoin:round;stroke-miterlimit:2;"><path d="M15,5l-10,0c-0.549,0 -1,0.451 -1,1c0,0.549 0.451,1 1,1l10,0c0.549,0 1,-0.451 1,-1c0,-0.549 -0.451,-1 -1,-1Zm0,4l-10,0c-0.549,0 -1,0.451 -1,1c0,0.549 0.451,1 1,1l10,0c0.549,0 1,-0.451 1,-1c0,-0.549 -0.451,-1 -1,-1Zm2,-9l-14,0c-1.646,0 -3,1.354 -3,3l0,10c0,1.646 1.354,3 3,3l11.59,0l3.7,3.71c0.189,0.187 0.444,0.292 0.71,0.29c0.131,0.003 0.261,-0.024 0.38,-0.08c0.373,-0.153 0.618,-0.517 0.62,-0.92l0,-16c0,-1.646 -1.354,-3 -3,-3Zm1,16.59l-2.29,-2.3c-0.189,-0.187 -0.444,-0.292 -0.71,-0.29l-12,0c-0.549,0 -1,-0.451 -1,-1l0,-10c0,-0.549 0.451,-1 1,-1l14,0c0.549,0 1,0.451 1,1l0,13.59Z" style="fill-rule:nonzero;"/></svg>