<?xml version="1.0" encoding="UTF-8" standalone="no"?>
<svg
   xmlns:dc="http://purl.org/dc/elements/1.1/"
   xmlns:cc="http://creativecommons.org/ns#"
   xmlns:rdf="http://www.w3.org/1999/02/22-rdf-syntax-ns#"
   xmlns:svg="http://www.w3.org/2000/svg"
   xmlns="http://www.w3.org/2000/svg"
   xmlns:sodipodi="http://sodipodi.sourceforge.net/DTD/sodipodi-0.dtd"
   xmlns:inkscape="http://www.inkscape.org/namespaces/inkscape"
   width="100%"
   height="100%"
   viewBox="0 0 37 32"
   version="1.1"
   xml:space="preserve"
   style="fill-rule:evenodd;clip-rule:evenodd;stroke-linecap:round;stroke-linejoin:round;"
   id="svg10"
   sodipodi:docname="link-icon-solid.svg"
   inkscape:version="0.92.3 (2405546, 2018-03-11)"><metadata
     id="metadata16"><rdf:RDF><cc:Work
         rdf:about=""><dc:format>image/svg+xml</dc:format><dc:type
           rdf:resource="http://purl.org/dc/dcmitype/StillImage" /></cc:Work></rdf:RDF></metadata><defs
     id="defs14" /><sodipodi:namedview
     pagecolor="#ffffff"
     bordercolor="#666666"
     borderopacity="1"
     objecttolerance="10"
     gridtolerance="10"
     guidetolerance="10"
     inkscape:pageopacity="0"
     inkscape:pageshadow="2"
     inkscape:window-width="1920"
     inkscape:window-height="1010"
     id="namedview12"
     showgrid="false"
     inkscape:zoom="7.375"
     inkscape:cx="18.5"
     inkscape:cy="16"
     inkscape:window-x="0"
     inkscape:window-y="34"
     inkscape:window-maximized="1"
     inkscape:current-layer="svg10" /><g
     id="g828"><path
       id="circle2"
       d="m 34.160999,15.741 a 15.524,15.524 0 0 1 -15.524,15.524 15.524,15.524 0 0 1 -15.524,-15.524 15.524,15.524 0 0 1 15.524,-15.52399999 15.524,15.524 0 0 1 15.524,15.52399999 z"
       style="" /><g
       id="g8"><path
         id="path4"
         style="fill-opacity:0;fill-rule:nonzero;stroke:#f8f7f3;stroke-width:2px;"
         d="M16.637,16.668c0.943,1.261 2.429,2.005 4.004,2.005c1.326,0 2.598,-0.527 3.536,-1.465l3,-3c0.9,-0.932 1.403,-2.178 1.403,-3.473c0,-2.743 -2.257,-5 -5,-5c-1.295,0 -2.541,0.503 -3.473,1.403l-1.72,1.71" /><path
         id="path6"
         style="fill:none;fill-rule:nonzero;stroke:#f8f7f3;stroke-width:2px;"
         d="M20.637,14.668c-0.943,-1.261 -2.429,-2.005 -4.004,-2.005c-1.326,0 -2.599,0.527 -3.536,1.465l-3,3c-0.9,0.932 -1.404,2.178 -1.404,3.474c0,2.743 2.257,5 5,5c1.296,0 2.542,-0.504 3.474,-1.404l1.71,-1.71" /></g></g></svg>