<?xml version="1.0" encoding="UTF-8" standalone="no"?><!DOCTYPE svg PUBLIC "-//W3C//DTD SVG 1.1//EN" "http://www.w3.org/Graphics/SVG/1.1/DTD/svg11.dtd"><svg width="100%" height="100%" viewBox="0 0 58 22" version="1.1" xmlns="http://www.w3.org/2000/svg" xmlns:xlink="http://www.w3.org/1999/xlink" xml:space="preserve" xmlns:serif="http://www.serif.com/" style="fill-rule:evenodd;clip-rule:evenodd;stroke-linejoin:round;stroke-miterlimit:2;"><rect id="Artboard1" x="0" y="0" width="57.63" height="21.386" style="fill:none;"/><clipPath id="_clip1"><rect x="0" y="0" width="57.63" height="21.386"/></clipPath><g clip-path="url(#_clip1)"><g><path d="M2.075,18.219c-0.433,-0.154 -0.786,-0.328 -1.058,-0.524c-0.273,-0.196 -0.5,-0.517 -0.682,-0.964c-0.223,-0.629 -0.335,-1.37 -0.335,-2.222c0,-0.825 0.049,-1.527 0.147,-2.107c0.098,-0.58 0.265,-1.171 0.503,-1.772l0.189,-0.44c0.223,-0.573 0.384,-0.95 0.482,-1.132c0.237,-0.545 0.657,-1.251 1.258,-2.117c0.531,-0.811 0.95,-1.402 1.257,-1.772c0.308,-0.37 0.605,-0.667 0.891,-0.891c0.287,-0.224 0.815,-0.601 1.583,-1.132c0.322,-0.238 0.692,-0.356 1.111,-0.356c0.35,0 0.675,0.087 0.975,0.262c0.301,0.174 0.528,0.422 0.681,0.744c0.154,0.265 0.231,0.622 0.231,1.069c0,0.629 -0.14,1.286 -0.419,1.971c-0.28,0.685 -0.636,1.223 -1.069,1.614c-0.14,0.126 -0.273,0.189 -0.399,0.189c-0.153,0 -0.356,-0.112 -0.608,-0.336c-0.125,-0.237 -0.195,-0.377 -0.209,-0.419c-0.014,-0.042 0.014,-0.07 0.084,-0.084c0.125,-0.154 0.311,-0.451 0.555,-0.891c0.245,-0.44 0.409,-0.786 0.493,-1.038c0.028,-0.083 0.056,-0.223 0.084,-0.419c0.111,-0.489 0.167,-0.818 0.167,-0.985c0,-0.168 -0.049,-0.301 -0.146,-0.399c-0.042,-0.041 -0.098,-0.062 -0.168,-0.062c-0.112,0 -0.308,0.069 -0.587,0.209c-0.336,0.14 -0.762,0.454 -1.279,0.944c-0.517,0.489 -0.985,1.02 -1.405,1.593c-0.642,0.838 -1.135,1.53 -1.478,2.075c-0.342,0.545 -0.604,1.097 -0.786,1.656l-0.23,0.546c0.014,0.055 -0.007,0.195 -0.063,0.419c-0.056,0.223 -0.119,0.405 -0.189,0.545c-0.196,0.81 -0.293,1.614 -0.293,2.411c0,0.601 0.052,1.132 0.157,1.593c0.105,0.461 0.255,0.776 0.451,0.943c0.111,0.098 0.279,0.147 0.503,0.147c0.279,0 0.625,-0.07 1.037,-0.209c0.413,-0.14 0.919,-0.343 1.52,-0.608c0.322,-0.126 0.626,-0.273 0.912,-0.441c0.287,-0.167 0.5,-0.321 0.64,-0.461c0.363,-0.265 0.657,-0.398 0.88,-0.398c0.154,-0.056 0.259,-0.084 0.315,-0.084c0.028,0 0.045,0.017 0.052,0.052c0.007,0.035 0.011,0.081 0.011,0.137c0,0.195 -0.105,0.408 -0.315,0.639c-0.21,0.231 -0.489,0.451 -0.838,0.66c-0.28,0.28 -0.615,0.497 -1.007,0.65c-0.447,0.322 -0.968,0.608 -1.562,0.86c-0.594,0.251 -1.135,0.377 -1.624,0.377c-0.112,0 -0.252,-0.014 -0.42,-0.042Z" style="fill-rule:nonzero;"/><path d="M10.377,18.974c-0.028,-0.014 -0.084,-0.035 -0.167,-0.063c-0.084,-0.028 -0.175,-0.035 -0.273,-0.021c-0.182,-0.028 -0.328,-0.119 -0.44,-0.272c-0.112,-0.154 -0.168,-0.322 -0.168,-0.504c0,-0.083 0.007,-0.146 0.021,-0.188c0.042,-0.042 0.077,-0.151 0.105,-0.325c0.028,-0.175 0.042,-0.332 0.042,-0.472c0.056,-0.154 0.119,-0.377 0.188,-0.671c0.084,-0.629 0.304,-1.673 0.661,-3.134c0.356,-1.46 0.583,-2.24 0.681,-2.337l-0.021,-0.231c0,-0.042 0.014,-0.126 0.042,-0.252c0.028,-0.125 0.084,-0.265 0.168,-0.419c0.056,-0.168 0.101,-0.332 0.136,-0.493c0.035,-0.16 0.052,-0.283 0.052,-0.366c0.028,-0.042 0.126,-0.294 0.294,-0.755l0.21,-0.587c0.083,-0.266 0.195,-0.58 0.335,-0.943c0.14,-0.364 0.231,-0.601 0.273,-0.713l0,-0.105c0.055,-0.07 0.209,-0.44 0.461,-1.111c0.126,-0.28 0.248,-0.57 0.367,-0.87c0.118,-0.301 0.241,-0.598 0.367,-0.891c0.041,-0.084 0.104,-0.203 0.188,-0.357c0.084,-0.153 0.126,-0.258 0.126,-0.314c0.056,-0.112 0.161,-0.168 0.314,-0.168c0.126,0 0.252,0.042 0.378,0.126c0.126,0.084 0.223,0.196 0.293,0.336l0.231,0.335l-0.713,1.53c-0.182,0.364 -0.346,0.717 -0.493,1.059c-0.146,0.342 -0.22,0.542 -0.22,0.597c-0.042,0.14 -0.139,0.427 -0.293,0.86c-0.154,0.433 -0.273,0.811 -0.357,1.132c-0.111,0.349 -0.234,0.695 -0.366,1.038c-0.133,0.342 -0.2,0.527 -0.2,0.555c0,-0.056 0.797,-0.111 2.39,-0.167c0.266,-0.014 0.759,-0.039 1.478,-0.074c0.72,-0.035 1.164,-0.073 1.332,-0.115l1.069,-0.126l0.65,-2.18c0.167,-0.685 0.44,-1.649 0.817,-2.893c0.182,-0.615 0.336,-1.01 0.461,-1.185c0.126,-0.174 0.28,-0.262 0.462,-0.262l0.021,0c0.083,0 0.185,0.028 0.304,0.084c0.118,0.056 0.199,0.133 0.241,0.231c0.167,0.14 0.251,0.3 0.251,0.482c0,0.182 -0.105,0.454 -0.314,0.818c-0.182,0.335 -0.399,0.894 -0.65,1.677c-0.042,0.181 -0.112,0.398 -0.21,0.65l0,0.083c0,0.266 -0.063,0.462 -0.188,0.587c-0.042,0.042 -0.13,0.238 -0.263,0.587c-0.132,0.35 -0.199,0.552 -0.199,0.608c0.014,0.098 0,0.221 -0.042,0.367c-0.042,0.147 -0.09,0.248 -0.146,0.304c-0.014,0.056 -0.147,0.615 -0.399,1.677c-0.251,1.063 -0.503,1.915 -0.754,2.558c0.014,0.07 -0.011,0.196 -0.074,0.377c-0.063,0.182 -0.094,0.308 -0.094,0.378c-0.21,0.671 -0.308,1.048 -0.294,1.132c-0.279,1.425 -0.419,2.187 -0.419,2.285c-0.014,0.028 -0.056,0.042 -0.126,0.042c-0.097,0 -0.272,-0.049 -0.524,-0.147c-0.181,-0.098 -0.314,-0.196 -0.398,-0.293c-0.084,-0.098 -0.126,-0.217 -0.126,-0.357c0,-0.126 0.056,-0.314 0.168,-0.566c0.056,-0.098 0.161,-0.517 0.314,-1.258l0.21,-0.901c0.084,-0.294 0.245,-0.937 0.482,-1.929c0.042,-0.182 0.105,-0.454 0.189,-0.818c0.084,-0.363 0.14,-0.559 0.168,-0.586l0,-0.21c-0.042,-0.042 -0.329,-0.063 -0.86,-0.063c-0.559,0 -1.191,0.024 -1.897,0.073c-0.706,0.049 -1.311,0.116 -1.814,0.2l-0.503,0.02c-0.237,0 -0.398,0.007 -0.482,0.021c-0.14,0 -0.259,0.004 -0.356,0.011c-0.098,0.007 -0.161,0.01 -0.189,0.01c-0.07,0.14 -0.259,0.787 -0.566,1.94c-0.308,1.153 -0.482,1.883 -0.524,2.19c-0.126,0.643 -0.269,1.332 -0.43,2.065c-0.161,0.734 -0.29,1.29 -0.388,1.667Z" style="fill-rule:nonzero;"/><path d="M23.333,17.695c-0.182,-0.251 -0.818,-0.356 -1.908,-0.314l-0.188,0.021c-0.266,0 -0.497,-0.063 -0.692,-0.189c-0.196,-0.126 -0.273,-0.266 -0.231,-0.419c0.028,-0.364 0.608,-0.552 1.74,-0.566l1.111,-0.021l0.21,-0.42c0.112,-0.321 0.272,-0.838 0.482,-1.551c0.07,-0.266 0.217,-0.713 0.44,-1.342c0.434,-1.341 0.664,-2.068 0.692,-2.18c0.07,-0.168 0.182,-0.503 0.336,-1.006c0.153,-0.503 0.272,-0.916 0.356,-1.237c0.657,-2.027 0.922,-3.054 0.797,-3.082c-0.14,-0.014 -0.521,0.011 -1.143,0.074c-0.622,0.062 -0.968,0.115 -1.038,0.157c-0.042,0.056 -0.111,0.084 -0.209,0.084c-0.084,0 -0.175,-0.032 -0.273,-0.095c-0.098,-0.063 -0.161,-0.136 -0.188,-0.22c-0.014,-0.056 -0.021,-0.133 -0.021,-0.23c0,-0.098 0.041,-0.175 0.125,-0.231c0.154,-0.126 0.493,-0.269 1.017,-0.43c0.524,-0.161 1.031,-0.269 1.52,-0.325c0.238,-0.028 0.479,-0.08 0.723,-0.157c0.245,-0.077 0.43,-0.171 0.556,-0.283c0.293,-0.098 0.538,-0.14 0.734,-0.126c0.097,0.07 0.335,0.105 0.712,0.105c0.322,0 0.566,-0.007 0.734,-0.021c0.503,-0.056 0.929,-0.084 1.279,-0.084c0.265,0 0.458,0.028 0.576,0.084c0.119,0.056 0.214,0.147 0.283,0.273c0.056,0.223 0.084,0.37 0.084,0.44c0,0.265 -0.153,0.391 -0.461,0.377c-0.238,0.056 -0.811,0.098 -1.719,0.126c-0.992,0.084 -1.523,0.182 -1.593,0.294c-0.07,0.069 -0.123,0.132 -0.157,0.188c-0.035,0.056 -0.074,0.112 -0.116,0.168c0.014,0.056 -0.017,0.234 -0.094,0.534c-0.077,0.301 -0.171,0.605 -0.283,0.912l-0.377,1.112c-0.392,1.215 -0.643,1.963 -0.755,2.243c-0.098,0.237 -0.168,0.482 -0.21,0.733c-0.237,0.825 -0.433,1.478 -0.587,1.961c-0.154,0.482 -0.272,0.87 -0.356,1.163c-0.266,0.783 -0.468,1.44 -0.608,1.971l1.195,-0.105c0.824,-0.084 1.362,-0.126 1.614,-0.126c0.196,0 0.332,0.021 0.409,0.063c0.077,0.042 0.136,0.126 0.178,0.252c0.168,0.209 0.252,0.384 0.252,0.524c0,0.167 -0.133,0.286 -0.399,0.356c-0.265,0.07 -0.678,0.098 -1.237,0.084c-0.643,0.028 -1.177,0.052 -1.603,0.073c-0.427,0.021 -0.713,0.053 -0.86,0.095c-0.147,0.042 -0.234,0.111 -0.262,0.209c0,0.112 -0.063,0.168 -0.189,0.168c-0.139,0 -0.272,-0.028 -0.398,-0.084Z" style="fill-rule:nonzero;"/><path d="M32.117,17.695c-0.825,-0.126 -1.384,-0.594 -1.677,-1.404c-0.028,-0.084 -0.074,-0.207 -0.136,-0.367c-0.063,-0.161 -0.095,-0.318 -0.095,-0.472c0,-0.182 0.056,-0.461 0.168,-0.839c0.098,-1.034 0.314,-2.026 0.65,-2.977c0.014,-0.069 0.052,-0.202 0.115,-0.398c0.063,-0.195 0.143,-0.419 0.241,-0.671c0.224,-0.684 0.573,-1.513 1.048,-2.484c0.476,-0.971 0.972,-1.855 1.489,-2.652c0.517,-0.797 0.929,-1.314 1.237,-1.551c0.223,-0.196 0.454,-0.294 0.692,-0.294c0.181,0 0.272,0.07 0.272,0.21c-0.028,0.07 -0.042,0.115 -0.042,0.136c0,0.021 0.028,0.039 0.084,0.053c0.084,0 0.126,0.049 0.126,0.146c0,0.168 -0.091,0.381 -0.273,0.64c-0.181,0.258 -0.377,0.45 -0.587,0.576c0,0.028 -0.021,0.084 -0.063,0.168c-0.041,0.084 -0.125,0.175 -0.251,0.273c-0.042,0.139 -0.091,0.265 -0.147,0.377c-0.056,0.112 -0.091,0.182 -0.105,0.21c-0.014,0.027 -0.052,0.09 -0.115,0.188c-0.063,0.098 -0.129,0.224 -0.199,0.378c-0.28,0.349 -0.419,0.58 -0.419,0.691c-0.042,0.098 -0.13,0.276 -0.263,0.535c-0.132,0.258 -0.199,0.409 -0.199,0.451l-0.146,0.104c0,0.098 -0.046,0.27 -0.137,0.514c-0.091,0.245 -0.206,0.465 -0.346,0.66c-0.097,0.224 -0.251,0.636 -0.461,1.237c-0.084,0.322 -0.161,0.538 -0.23,0.65c-0.028,0.056 -0.049,0.133 -0.063,0.231c-0.056,0.056 -0.119,0.203 -0.189,0.44c-0.07,0.238 -0.119,0.524 -0.147,0.86l-0.377,1.069c-0.098,-0.014 -0.147,0.168 -0.147,0.545c0,0.377 0.028,0.762 0.084,1.153c0.084,0.112 0.178,0.192 0.283,0.241c0.105,0.049 0.262,0.073 0.472,0.073l0.692,-0.042c0.041,0.014 0.111,0.021 0.209,0.021c0.126,0 0.294,-0.01 0.503,-0.031c0.21,-0.021 0.371,-0.025 0.483,-0.011c0.405,0 0.859,-0.041 1.362,-0.125c0.224,-0.028 0.447,-0.042 0.671,-0.042c0.112,0 0.189,0.01 0.231,0.031c0.042,0.021 0.097,0.067 0.167,0.136c0.126,0.168 0.189,0.294 0.189,0.378c0,0.154 -0.175,0.272 -0.524,0.356c-0.811,0.21 -1.611,0.374 -2.4,0.493c-0.79,0.119 -1.367,0.164 -1.73,0.136Z" style="fill-rule:nonzero;"/><path d="M40.964,17.842c-0.545,-0.14 -1.041,-0.416 -1.489,-0.828c-0.447,-0.413 -0.733,-0.849 -0.859,-1.31c-0.056,-0.42 -0.084,-0.888 -0.084,-1.405c0,-0.335 0.021,-0.524 0.063,-0.566c0.042,-0.028 0.063,-0.112 0.063,-0.252c-0.014,-0.084 0.035,-0.314 0.147,-0.691c0.097,-0.252 0.125,-0.469 0.083,-0.65c0.014,-0.028 0.039,-0.077 0.074,-0.147c0.035,-0.07 0.08,-0.14 0.136,-0.21c0.07,-0.07 0.108,-0.143 0.115,-0.22c0.007,-0.077 0.004,-0.129 -0.01,-0.157l0,-0.021c0,-0.056 0.017,-0.129 0.052,-0.22c0.035,-0.091 0.074,-0.164 0.116,-0.22c0.041,-0.042 0.08,-0.098 0.115,-0.168c0.035,-0.07 0.059,-0.119 0.073,-0.147c0.014,-0.098 0.123,-0.409 0.325,-0.933c0.203,-0.524 0.339,-0.842 0.409,-0.954l0,-0.041c0.056,-0.14 0.133,-0.287 0.231,-0.441c0.028,-0.195 0.125,-0.468 0.293,-0.817c0.322,-0.713 0.772,-1.534 1.352,-2.464c0.58,-0.929 1.038,-1.554 1.373,-1.876c0.14,-0.154 0.255,-0.262 0.346,-0.325c0.091,-0.063 0.179,-0.094 0.262,-0.094c0.126,0 0.287,0.098 0.483,0.293c0.167,0.168 0.251,0.392 0.251,0.671c0,0.154 -0.028,0.231 -0.084,0.231c-0.181,0.126 -0.545,0.58 -1.09,1.362c-0.545,0.783 -0.985,1.482 -1.321,2.097c-0.181,0.391 -0.339,0.72 -0.471,0.985c-0.133,0.266 -0.22,0.44 -0.262,0.524l-0.084,0.189c-0.336,0.713 -0.65,1.481 -0.944,2.306c-0.069,0.084 -0.115,0.171 -0.136,0.262c-0.021,0.091 -0.031,0.15 -0.031,0.178c-0.028,-0.014 -0.053,0.025 -0.074,0.116c-0.021,0.09 -0.045,0.171 -0.073,0.241c-0.098,0.083 -0.147,0.286 -0.147,0.608c-0.154,0.377 -0.279,0.852 -0.377,1.425c-0.098,0.573 -0.133,0.999 -0.105,1.279c0.056,0.461 0.44,0.832 1.153,1.111c0.322,0.126 0.559,0.189 0.713,0.189c0.098,0.014 0.248,0.007 0.451,-0.021c0.202,-0.028 0.436,-0.063 0.702,-0.105l-0.021,0c0.07,-0.014 0.454,-0.098 1.153,-0.252c0.335,-0.042 0.615,-0.104 0.838,-0.188c0.42,-0.126 0.692,-0.189 0.818,-0.189c0.084,0 0.14,0.014 0.168,0.042c0.112,0.084 0.168,0.189 0.168,0.314l-0.042,0.189c-0.042,0.112 -0.266,0.28 -0.671,0.503c-0.406,0.224 -0.797,0.392 -1.174,0.503c-0.294,0.126 -0.633,0.224 -1.017,0.294c-0.384,0.07 -0.758,0.105 -1.122,0.105c-0.377,0 -0.656,-0.035 -0.838,-0.105Z" style="fill-rule:nonzero;"/><path d="M48.092,18.114c-0.126,-0.056 -0.273,-0.167 -0.441,-0.335c-0.307,-0.196 -0.538,-0.419 -0.691,-0.671c-0.154,-0.251 -0.238,-0.594 -0.252,-1.027c0,-0.112 0.094,-0.269 0.283,-0.472c0.189,-0.202 0.395,-0.304 0.618,-0.304c0.126,0 0.252,0.042 0.378,0.126c-0.126,0.405 -0.189,0.678 -0.189,0.818c0,0.181 0.067,0.325 0.199,0.429c0.133,0.105 0.367,0.193 0.703,0.262c0.195,0.042 0.377,0.063 0.545,0.063c0.223,0 0.531,-0.035 0.922,-0.105c0.391,-0.027 0.692,-0.059 0.902,-0.094c0.209,-0.035 0.363,-0.094 0.461,-0.178c0.405,-0.168 0.768,-0.367 1.09,-0.598c0.321,-0.23 0.538,-0.464 0.65,-0.702c0.14,-0.182 0.223,-0.328 0.251,-0.44c0.028,-0.112 0.042,-0.245 0.042,-0.398l0,-0.336c-0.014,-0.447 -0.049,-0.758 -0.105,-0.933c-0.055,-0.174 -0.237,-0.583 -0.545,-1.226c0,-0.084 -0.132,-0.276 -0.398,-0.577c-0.265,-0.3 -0.44,-0.499 -0.524,-0.597c-0.182,-0.377 -0.332,-0.671 -0.451,-0.881c-0.119,-0.209 -0.262,-0.37 -0.43,-0.482c-0.041,-0.056 -0.097,-0.174 -0.167,-0.356c-0.07,-0.182 -0.119,-0.28 -0.147,-0.294c-0.014,-0.014 -0.035,-0.052 -0.063,-0.115c-0.028,-0.063 -0.063,-0.143 -0.105,-0.241c-0.112,-0.252 -0.167,-0.517 -0.167,-0.797c0,-0.391 0.087,-0.8 0.262,-1.226c0.174,-0.426 0.429,-0.828 0.765,-1.206c0.154,-0.265 0.437,-0.59 0.849,-0.974c0.412,-0.385 0.66,-0.577 0.744,-0.577c0.028,-0.014 0.087,-0.038 0.178,-0.073c0.091,-0.035 0.192,-0.095 0.304,-0.178c0.126,-0.028 0.301,-0.088 0.524,-0.179c0.224,-0.09 0.413,-0.136 0.566,-0.136c0.21,-0.07 0.381,-0.122 0.514,-0.157c0.133,-0.035 0.269,-0.053 0.409,-0.053l0.608,0.042c0.699,0.182 1.132,0.545 1.3,1.091l0.146,0.901l-0.88,0.65c-0.168,0.056 -0.378,0.084 -0.629,0.084c-0.168,0 -0.315,-0.007 -0.44,-0.021c-0.126,-0.014 -0.21,-0.028 -0.252,-0.042c-0.07,0 -0.105,-0.035 -0.105,-0.105c0,-0.042 0.018,-0.077 0.053,-0.105c0.035,-0.028 0.073,-0.042 0.115,-0.042c0.042,-0.042 0.112,-0.115 0.21,-0.22c0.097,-0.105 0.195,-0.206 0.293,-0.304c0.098,-0.154 0.147,-0.279 0.147,-0.377c0,-0.07 -0.025,-0.115 -0.074,-0.136c-0.048,-0.021 -0.136,-0.032 -0.262,-0.032l-0.545,0.042c-0.503,0.028 -0.978,0.157 -1.425,0.388c-0.447,0.23 -0.818,0.562 -1.111,0.996c-0.336,0.293 -0.587,0.601 -0.755,0.922c-0.168,0.322 -0.252,0.608 -0.252,0.86c0.07,0.335 0.189,0.656 0.357,0.964l1.195,1.656c0.321,0.405 0.482,0.636 0.482,0.692l0,0.105c0.028,0 0.14,0.188 0.335,0.566c0.196,0.377 0.294,0.601 0.294,0.671l0.189,0.44c0.069,0.07 0.139,0.363 0.209,0.88c0.07,0.517 0.105,0.916 0.105,1.195c-0.014,0.238 -0.101,0.503 -0.262,0.797c-0.161,0.293 -0.36,0.566 -0.598,0.818c-0.293,0.307 -0.719,0.649 -1.278,1.027c-0.559,0.377 -1.042,0.615 -1.447,0.713c-0.237,0.083 -0.548,0.153 -0.933,0.209c-0.384,0.056 -0.765,0.084 -1.142,0.084c-0.629,0 -1.007,-0.063 -1.132,-0.189Z" style="fill-rule:nonzero;"/></g></g></svg>