<?xml version="1.0" encoding="UTF-8" standalone="no"?><!DOCTYPE svg PUBLIC "-//W3C//DTD SVG 1.1//EN" "http://www.w3.org/Graphics/SVG/1.1/DTD/svg11.dtd"><svg width="100%" height="100%" viewBox="0 0 129 129" version="1.1" xmlns="http://www.w3.org/2000/svg" xmlns:xlink="http://www.w3.org/1999/xlink" xml:space="preserve" xmlns:serif="http://www.serif.com/" style="fill-rule:evenodd;clip-rule:evenodd;stroke-linejoin:round;stroke-miterlimit:2;"><path d="M51.65,96.75c11,0 21,-3.9 28.8,-10.5l35,35c0.8,0.8 1.8,1.2 2.9,1.2c1.1,0 2.1,-0.4 2.9,-1.2c1.6,-1.6 1.6,-4.2 0,-5.8l-35,-35c6.5,-7.8 10.5,-17.9 10.5,-28.8c0,-24.9 -20.2,-45.1 -45.1,-45.1c-24.8,0 -45.1,20.3 -45.1,45.1c0,24.9 20.3,45.1 45.1,45.1Zm0,-82c20.4,0 36.9,16.6 36.9,36.9c0,20.4 -16.5,36.9 -36.9,36.9c-20.4,0 -36.9,-16.6 -36.9,-36.9c0,-20.3 16.6,-36.9 36.9,-36.9Z" style="fill-rule:nonzero;stroke:#000;stroke-width:3px;"/></svg>