<?xml version="1.0" encoding="UTF-8" standalone="no"?><!DOCTYPE svg PUBLIC "-//W3C//DTD SVG 1.1//EN" "http://www.w3.org/Graphics/SVG/1.1/DTD/svg11.dtd"><svg width="100%" height="100%" viewBox="0 0 324 281" version="1.1" xmlns="http://www.w3.org/2000/svg" xmlns:xlink="http://www.w3.org/1999/xlink" xml:space="preserve" xmlns:serif="http://www.serif.com/" style="fill-rule:evenodd;clip-rule:evenodd;stroke-linejoin:round;stroke-miterlimit:2;"><path d="M162.501,0.321c41.821,0.142 84.037,11.377 117.299,37.576c22.857,18.004 40.572,44.345 43.047,73.736c1.81,21.509 -4.701,43.423 -17.007,61.353c-8.516,12.407 -19.493,22.966 -31.797,31.746l-0.356,0.253c-1.354,19.972 7.865,40.473 17.149,57.64l0.058,0.106c0.999,2.583 1.54,3.231 1.479,6.072c-0.137,6.393 -5.927,11.957 -12.289,11.875c-1.05,-0.013 -2.083,-0.275 -3.119,-0.449c-0.028,-0.004 -1.331,-0.375 -1.348,-0.38c-0.451,-0.129 -0.903,-0.259 -1.354,-0.392c-28.482,-8.338 -55.598,-22.292 -75.994,-44.295c0,0 -3.675,0.44 -6.779,0.861c-50.472,6.846 -104.199,-3.183 -144.646,-33.555c-23.879,-17.931 -42.368,-44.203 -45.519,-73.819c-2.474,-23.244 4.963,-47.205 18.777,-66.077c20.028,-27.363 50.983,-44.903 83.066,-54.132c18.937,-5.446 38.657,-8.052 58.314,-8.119c0.34,0 0.679,0 1.019,0Zm-0.964,24.272c-39.285,0.134 -79.258,10.615 -109.099,38.133c-18.548,17.104 -31.158,42.687 -26.177,68.736c5.983,31.293 34.067,55.526 65.111,68.582c34.028,14.312 72.739,17.211 109.092,9.852l2.767,-0.236c2.794,0.406 5.533,1.165 7.622,2.989c2.653,2.316 4.575,5.425 7.132,8.022c11.211,11.384 25.03,20.114 39.625,26.8c-6.098,-16.831 -10.835,-35.043 -6.969,-52.344c0,0 0.497,-1.932 1.144,-3.157c1.508,-2.853 3.716,-3.923 6.651,-5.94c22.598,-15.628 41.066,-39.937 40.438,-68.324c-0.609,-27.561 -20.561,-52.535 -43.316,-67.344c-27.312,-17.775 -60.425,-25.658 -93.112,-25.769c-0.303,0 -0.606,0 -0.909,0Z"/></svg>