<?xml version="1.0" encoding="UTF-8" standalone="no"?>
<svg
   xmlns:dc="http://purl.org/dc/elements/1.1/"
   xmlns:cc="http://creativecommons.org/ns#"
   xmlns:rdf="http://www.w3.org/1999/02/22-rdf-syntax-ns#"
   xmlns:svg="http://www.w3.org/2000/svg"
   xmlns="http://www.w3.org/2000/svg"
   xmlns:sodipodi="http://sodipodi.sourceforge.net/DTD/sodipodi-0.dtd"
   xmlns:inkscape="http://www.inkscape.org/namespaces/inkscape"
   width="100%"
   height="100%"
   viewBox="0 0 37 32"
   version="1.1"
   xml:space="preserve"
   style="fill-rule:evenodd;clip-rule:evenodd;stroke-linejoin:round;stroke-miterlimit:2;"
   id="svg12"
   sodipodi:docname="link-icon.svg"
   inkscape:version="0.92.3 (2405546, 2018-03-11)"><metadata
     id="metadata18"><rdf:RDF><cc:Work
         rdf:about=""><dc:format>image/svg+xml</dc:format><dc:type
           rdf:resource="http://purl.org/dc/dcmitype/StillImage" /></cc:Work></rdf:RDF></metadata><defs
     id="defs16" /><sodipodi:namedview
     pagecolor="#ffffff"
     bordercolor="#666666"
     borderopacity="1"
     objecttolerance="10"
     gridtolerance="10"
     guidetolerance="10"
     inkscape:pageopacity="0"
     inkscape:pageshadow="2"
     inkscape:window-width="1920"
     inkscape:window-height="1010"
     id="namedview14"
     showgrid="false"
     inkscape:zoom="7.375"
     inkscape:cx="18.5"
     inkscape:cy="16"
     inkscape:window-x="0"
     inkscape:window-y="34"
     inkscape:window-maximized="1"
     inkscape:current-layer="g10" /><circle
     cx="18.637"
     cy="15.741"
     r="15.524"
     style="fill:none;"
     id="circle2" /><g
     id="g10"><g
       id="g831"><path
         id="path4"
         style="fill-opacity:0;fill-rule:nonzero;"
         d="M16.637,16.668c0.943,1.261 2.429,2.005 4.004,2.005c1.326,0 2.598,-0.527 3.536,-1.465l3,-3c0.9,-0.932 1.403,-2.178 1.403,-3.473c0,-2.743 -2.257,-5 -5,-5c-1.295,0 -2.541,0.503 -3.473,1.403l-1.72,1.71" /><path
         id="path6"
         d="M23.657,4.735c4.525,0.089 7.941,6.286 4.238,10.245c-3.309,3.334 -8.013,7.091 -11.782,2.725c-0.763,-0.883 0.076,-3.057 1.471,-1.367c1.422,1.672 4.221,1.867 5.85,0.285c2.718,-2.704 6.337,-6.473 2.372,-9.181c-1.473,-1.007 -3.572,-0.859 -4.934,0.372c-0.862,0.819 -1.658,2.074 -2.488,2.072c-0.771,-0.002 -1.292,-1.087 -0.702,-1.722l1.729,-1.733c1.141,-1.082 2.652,-1.706 4.246,-1.696Z" /><path
         id="path8"
         d="M16.722,11.715c1.832,0.041 3.601,0.944 4.711,2.417c0,0 -0.069,3.055 -1.743,1.028c-1.422,-1.672 -4.223,-1.867 -5.85,-0.286c-2.736,2.724 -6.376,6.59 -2.293,9.237c1.498,0.971 3.596,0.768 4.923,-0.492l1.7,-1.712c0.765,-0.717 2.341,0.421 1.414,1.425l-1.72,1.733c-3.246,3.082 -9.966,1.131 -10.167,-4.113c-0.112,-2.938 2.439,-5.279 4.799,-7.571c1.133,-1.074 2.672,-1.678 4.226,-1.666Z" /></g></g></svg>