<?xml version="1.0" encoding="UTF-8" standalone="no"?><!DOCTYPE svg PUBLIC "-//W3C//DTD SVG 1.1//EN" "http://www.w3.org/Graphics/SVG/1.1/DTD/svg11.dtd"><svg width="100%" height="100%" viewBox="0 0 208 208" version="1.1" xmlns="http://www.w3.org/2000/svg" xmlns:xlink="http://www.w3.org/1999/xlink" xml:space="preserve" xmlns:serif="http://www.serif.com/" style="fill-rule:evenodd;clip-rule:evenodd;stroke-linejoin:round;stroke-miterlimit:2;"><g><path d="M197.787,2.886l-83.367,0c-1.943,0 -3.807,0.772 -5.182,2.146l-104.206,104.208c-2.861,2.862 -2.861,7.501 0,10.362l83.366,83.366c1.431,1.43 3.307,2.146 5.182,2.146c1.875,0 3.75,-0.715 5.182,-2.146l104.206,-104.208c1.374,-1.374 2.146,-3.238 2.146,-5.181l0,-83.366c0,-4.046 -3.28,-7.327 -7.327,-7.327Zm-7.327,87.659l-96.881,96.88l-73.005,-73.004l96.881,-96.881l73.006,0l0,73.005l-0.001,0Z" style="fill-rule:nonzero;stroke:#000;stroke-width:2.93px;"/><path d="M156.104,73.96c5.893,0 11.434,-2.295 15.603,-6.462c8.602,-8.603 8.601,-22.601 -0.002,-31.204c-4.168,-4.166 -9.709,-6.461 -15.602,-6.461c-5.893,0 -11.434,2.295 -15.602,6.462c-8.602,8.603 -8.602,22.601 0,31.204c4.168,4.166 9.709,6.461 15.603,6.461Zm-5.239,-27.304c1.399,-1.399 3.26,-2.17 5.238,-2.17c1.979,0 3.841,0.771 5.239,2.17c2.89,2.89 2.89,7.591 0.002,10.479c-1.4,1.4 -3.261,2.171 -5.24,2.171c-1.979,0 -3.841,-0.771 -5.239,-2.17c-2.889,-2.889 -2.889,-7.59 0,-10.48Z" style="fill-rule:nonzero;stroke:#000;stroke-width:2.93px;"/></g></svg>